<?xml version="1.0" encoding="UTF-8" standalone="no"?>
<svg
   width="24"
   height="24"
   version="1.1"
   id="svg5"
   sodipodi:docname="appmenu.svg"
   inkscape:version="1.4 (e7c3feb100, 2024-10-09)"
   xmlns:inkscape="http://www.inkscape.org/namespaces/inkscape"
   xmlns:sodipodi="http://sodipodi.sourceforge.net/DTD/sodipodi-0.dtd"
   xmlns="http://www.w3.org/2000/svg"
   xmlns:svg="http://www.w3.org/2000/svg">
  <defs
     id="defs5" />
  <sodipodi:namedview
     id="namedview5"
     pagecolor="#ffffff"
     bordercolor="#000000"
     borderopacity="0.25"
     inkscape:showpageshadow="2"
     inkscape:pageopacity="0.0"
     inkscape:pagecheckerboard="0"
     inkscape:deskcolor="#d1d1d1"
     inkscape:zoom="19.180271"
     inkscape:cx="57.898034"
     inkscape:cy="16.058167"
     inkscape:window-width="2743"
     inkscape:window-height="1511"
     inkscape:window-x="0"
     inkscape:window-y="0"
     inkscape:window-maximized="1"
     inkscape:current-layer="svg5" />
  <g
     id="pressed-center"
     transform="matrix(1.0909091,0,0,1.0909091,-2.1818182,0)"
     style="display:inline">
    <g
       transform="translate(46)"
       id="g1">
      <rect
         style="opacity:0.00100002"
         width="22"
         height="22"
         x="0"
         y="0"
         id="rect1" />
    </g>
    <circle
       style="opacity:0.16;fill:#000000"
       cx="57"
       cy="11"
       r="11"
       id="circle1" />
    <path
       style="fill:#676767"
       d="m 53.333366,15.393241 h 7.333267 v -1.833317 h -7.333267 z"
       id="path1" />
    <path
       style="display:inline;fill:#676767"
       d="m 53.333366,8.440076 h 7.333267 V 6.606759 h -7.333267 z"
       id="path1-0" />
    <path
       style="display:inline;fill:#676767"
       d="m 53.333366,11.916658 h 7.333267 v -1.833316 h -7.333267 z"
       id="path1-2" />
  </g>
  <g
     id="hover-center"
     transform="matrix(1.0909091,0,0,1.0909091,-1.0909091,0)"
     style="display:inline">
    <g
       transform="translate(23)"
       id="g2">
      <rect
         style="opacity:0.00100002"
         width="22"
         height="22"
         x="0"
         y="0"
         id="rect2" />
    </g>
    <circle
       style="opacity:0.07;fill:#000000"
       cx="34"
       cy="11"
       r="11"
       id="circle2" />
    <path
       style="fill:#676767"
       d="m 30.333366,15.393241 h 7.333267 v -1.833317 h -7.333267 z"
       id="path2" />
    <path
       style="display:inline;fill:#676767"
       d="m 30.333366,8.440076 h 7.333268 V 6.606759 h -7.333268 z"
       id="path2-9" />
    <path
       style="display:inline;fill:#676767"
       d="m 30.333366,11.916658 h 7.333267 v -1.833316 h -7.333267 z"
       id="path2-5" />
  </g>
  <g
     id="active-center"
     transform="scale(1.0909091)"
     style="display:inline">
    <rect
       style="opacity:0.00100002"
       width="22"
       height="22"
       x="0"
       y="0"
       id="rect3" />
    <path
       style="fill:#676767"
       d="m 7.3333665,13.559924 v 1.833317 h 7.3332665 v -1.833317 z"
       id="path3" />
    <path
       style="fill:#676767"
       d="m 7.3333668,10.083342 v 1.833316 h 7.3332662 v -1.833316 z"
       id="path3-6" />
    <path
       style="fill:#676767"
       d="m 7.3333669,6.6532255 v 1.833317 h 7.3332661 v -1.833317 z"
       id="path3-5" />
  </g>
  <g
     id="inactive-center"
     transform="matrix(1.0909091,0,0,1.0909091,72.000001,0)">
    <rect
       style="opacity:0.001"
       width="22"
       height="22"
       x="0"
       y="0"
       id="rect4" />
    <path
       style="opacity:0.7;fill:#676767"
       d="m 7.3333664,13.559924 v 1.833317 h 7.3332676 v -1.833317 z"
       id="path4" />
    <path
       style="opacity:0.7;fill:#676767"
       d="M 7.3333663,6.606759 V 8.440076 H 14.666634 V 6.606759 Z"
       id="path4-0" />
    <path
       style="opacity:0.7;fill:#676767"
       d="m 7.3333664,10.083341 v 1.833317 h 7.3332676 v -1.833316 z"
       id="path4-3" />
  </g>
  <g
     id="deactivated-center"
     transform="matrix(1.0909091,0,0,1.0909091,96.000001,0)">
    <rect
       style="opacity:0.001"
       width="22"
       height="22"
       x="0"
       y="0"
       id="rect5" />
    <path
       style="opacity:0.7;fill:#676767"
       d="m 7.3333661,13.559924 v 1.833317 h 7.3332679 v -1.833317 z"
       id="path5" />
    <path
       style="opacity:0.7;fill:#676767"
       d="M 7.3333662,6.606759 V 8.440076 H 14.666634 V 6.606759 Z"
       id="path5-1" />
    <path
       style="opacity:0.7;fill:#676767"
       d="m 7.3333659,10.083341 v 1.833318 h 7.3332681 v -1.833318 z"
       id="path5-2" />
  </g>
</svg>
