<svg xmlns="http://www.w3.org/2000/svg" viewBox="0 0 24 24" width="24" height="24">
  <path d="M 22 2 L 22 3 L 23 3 L 23 4 L 23 10 L 22 10 L 22 11 L 21 11 L 21 12 L 20 12 L 20 13 L 19 13 L 19 14 L 18 14 L 18 15 L 17 15 L 17 16 L 16 16 L 16 17 L 15 17 L 15 18 L 14 18 L 14 19 L 13 19 L 13 20 L 12 20 L 12 21 L 11 21 L 11 12 L 12 12 L 12 11 L 13 11 L 13 10 L 14 10 L 14 9 L 15 9 L 15 8 L 16 8 L 16 7 L 17 7 L 17 6 L 18 6 L 18 5 L 19 5 L 19 4 L 20 4 L 20 3 L 21 3 L 21 2 Z" fill="white"/>
  <rect x="20" y="2" width="12" height="12" fill="white"/>
  <rect x="22" y="4" width="2" height="2" fill="black"/> <!-- Eye -->
  <rect x="26" y="8" width="6" height="2" fill="white"/>
  <rect x="18" y="10" width="8" height="10" fill="white"/>
  <rect x="14" y="14" width="4" height="4" fill="white"/>
  <rect x="12" y="12" width="2" height="2" fill="white"/>
  <rect x="26" y="14" width="4" height="2" fill="white"/>
  <rect x="20" y="20" width="2" height="4" fill="white"/>
  <rect x="24" y="20" width="2" height="4" fill="white"/>
</svg>